<svg width="15" height="15" viewBox="0 0 15 15" fill="none" xmlns="http://www.w3.org/2000/svg">
<path d="M6.90665 1.51446L5.32499 4.72138L1.78624 5.23729C1.15164 5.32934 0.897311 6.11169 1.35752 6.55979L3.91772 9.0546L3.31219 12.5788C3.20319 13.2158 3.87413 13.693 4.43606 13.3951L7.60181 11.7311L10.7675 13.3951C11.3295 13.6906 12.0004 13.2158 11.8914 12.5788L11.2859 9.0546L13.8461 6.55979C14.3063 6.11169 14.052 5.32934 13.4174 5.23729L9.87862 4.72138L8.29696 1.51446C8.01357 0.94283 7.19246 0.935564 6.90665 1.51446Z" fill="#191919"/>
<mask id="mask0_2949_544" style="mask-type:luminance" maskUnits="userSpaceOnUse" x="1" y="1" width="14" height="13">
<path d="M6.90665 1.51446L5.32499 4.72138L1.78624 5.23729C1.15164 5.32934 0.897311 6.11169 1.35752 6.55979L3.91772 9.0546L3.31219 12.5788C3.20319 13.2158 3.87413 13.693 4.43606 13.3951L7.60181 11.7311L10.7675 13.3951C11.3295 13.6906 12.0004 13.2158 11.8914 12.5788L11.2859 9.0546L13.8461 6.55979C14.3063 6.11169 14.052 5.32934 13.4174 5.23729L9.87862 4.72138L8.29696 1.51446C8.01357 0.94283 7.19246 0.935564 6.90665 1.51446Z" fill="white"/>
</mask>
<g mask="url(#mask0_2949_544)">
<rect x="0.527344" y="0.5" width="14" height="14" fill="#191919"/>
<rect x="0.527344" y="0.5" width="14" height="14" fill="white"/>
<rect x="0.527344" y="0.5" width="14" height="14" fill="#E38527"/>
</g>
</svg>
