<svg width="15" height="15" viewBox="0 0 15 15" fill="none" xmlns="http://www.w3.org/2000/svg">
<path fill-rule="evenodd" clip-rule="evenodd" d="M9.41619 4.72107L12.9615 5.23723C13.5973 5.32927 13.8521 6.11162 13.3909 6.55972L10.8256 9.05405L11.4319 12.578C11.5181 13.0816 11.1156 13.4839 10.665 13.4839C10.5461 13.4839 10.4236 13.4558 10.3058 13.394L7.13428 11.73L3.96249 13.3936C3.84453 13.4561 3.72172 13.4844 3.60231 13.4844C3.15228 13.4844 2.75044 13.0806 2.83667 12.5773L3.44366 9.05356L0.878853 6.55875C0.417919 6.11065 0.672728 5.32854 1.30854 5.2365L4.85408 4.72083L6.43889 1.51439C6.58179 1.22591 6.85768 1.08301 7.1338 1.08301C7.41162 1.08301 7.68944 1.22785 7.83186 1.51439L9.41619 4.72107ZM9.57387 8.64809L10.0128 8.22131L12.0147 6.27439L9.24785 5.87159L8.64207 5.78342L8.37127 5.23529L7.13525 2.73346L7.13453 10.4163L7.6766 10.7006L10.1503 11.9986L9.67754 9.25072L9.57387 8.64809Z" fill="#191919"/>
<mask id="mask0_2949_554" style="mask-type:luminance" maskUnits="userSpaceOnUse" x="0" y="1" width="14" height="13">
<path fill-rule="evenodd" clip-rule="evenodd" d="M9.41619 4.72107L12.9615 5.23723C13.5973 5.32927 13.8521 6.11162 13.3909 6.55972L10.8256 9.05405L11.4319 12.578C11.5181 13.0816 11.1156 13.4839 10.665 13.4839C10.5461 13.4839 10.4236 13.4558 10.3058 13.394L7.13428 11.73L3.96249 13.3936C3.84453 13.4561 3.72172 13.4844 3.60231 13.4844C3.15228 13.4844 2.75044 13.0806 2.83667 12.5773L3.44366 9.05356L0.878853 6.55875C0.417919 6.11065 0.672728 5.32854 1.30854 5.2365L4.85408 4.72083L6.43889 1.51439C6.58179 1.22591 6.85768 1.08301 7.1338 1.08301C7.41162 1.08301 7.68944 1.22785 7.83186 1.51439L9.41619 4.72107ZM9.57387 8.64809L10.0128 8.22131L12.0147 6.27439L9.24785 5.87159L8.64207 5.78342L8.37127 5.23529L7.13525 2.73346L7.13453 10.4163L7.6766 10.7006L10.1503 11.9986L9.67754 9.25072L9.57387 8.64809Z" fill="white"/>
</mask>
<g mask="url(#mask0_2949_554)">
<rect x="0.0361328" y="0.5" width="14" height="14" fill="#191919"/>
<rect x="0.0361328" y="0.5" width="14" height="14" fill="white"/>
<rect x="0.0361328" y="0.5" width="14" height="14" fill="#E38527"/>
</g>
</svg>
